<mxfile host="Electron" modified="2024-04-13T13:08:27.145Z" agent="Mozilla/5.0 (X11; Linux x86_64) AppleWebKit/537.36 (KHTML, like Gecko) draw.io/24.1.0 Chrome/120.0.6099.109 Electron/28.1.0 Safari/537.36" etag="l4_nMBH00AAEkD-V6jHp" version="24.1.0" type="device">
  <diagram name="Page-1" id="xfDIbUuqRslQRPWimazf">
    <mxGraphModel dx="1195" dy="698" grid="1" gridSize="10" guides="1" tooltips="1" connect="1" arrows="1" fold="1" page="1" pageScale="1" pageWidth="827" pageHeight="1169" math="1" shadow="0">
      <root>
        <mxCell id="0" />
        <mxCell id="1" parent="0" />
        <mxCell id="GlhPZns2iECCwf8unu3B-3" style="edgeStyle=orthogonalEdgeStyle;rounded=0;orthogonalLoop=1;jettySize=auto;html=1;entryX=0;entryY=0.5;entryDx=0;entryDy=0;exitX=1;exitY=0.5;exitDx=0;exitDy=0;" edge="1" parent="1" source="GlhPZns2iECCwf8unu3B-64" target="GlhPZns2iECCwf8unu3B-1">
          <mxGeometry relative="1" as="geometry">
            <mxPoint x="290" y="270" as="sourcePoint" />
          </mxGeometry>
        </mxCell>
        <mxCell id="GlhPZns2iECCwf8unu3B-7" style="edgeStyle=orthogonalEdgeStyle;rounded=0;orthogonalLoop=1;jettySize=auto;html=1;entryX=0;entryY=0.5;entryDx=0;entryDy=0;" edge="1" parent="1" source="GlhPZns2iECCwf8unu3B-1" target="GlhPZns2iECCwf8unu3B-4">
          <mxGeometry relative="1" as="geometry" />
        </mxCell>
        <mxCell id="GlhPZns2iECCwf8unu3B-1" value="&lt;div style=&quot;&quot;&gt;$$\begin{bmatrix}\cdots\end{bmatrix}$$&lt;/div&gt;" style="text;html=1;align=left;verticalAlign=middle;whiteSpace=wrap;rounded=0;" vertex="1" parent="1">
          <mxGeometry x="370" y="243.75" width="30" height="52.5" as="geometry" />
        </mxCell>
        <mxCell id="GlhPZns2iECCwf8unu3B-2" value="$$\in \mathbb{R}$$" style="text;html=1;align=center;verticalAlign=middle;whiteSpace=wrap;rounded=0;" vertex="1" parent="1">
          <mxGeometry x="354" y="280" width="60" height="30" as="geometry" />
        </mxCell>
        <mxCell id="GlhPZns2iECCwf8unu3B-9" style="edgeStyle=orthogonalEdgeStyle;rounded=0;orthogonalLoop=1;jettySize=auto;html=1;entryX=0.5;entryY=0;entryDx=0;entryDy=0;" edge="1" parent="1" source="GlhPZns2iECCwf8unu3B-4" target="GlhPZns2iECCwf8unu3B-10">
          <mxGeometry relative="1" as="geometry">
            <mxPoint x="660" y="270" as="targetPoint" />
          </mxGeometry>
        </mxCell>
        <mxCell id="GlhPZns2iECCwf8unu3B-4" value="&lt;div style=&quot;&quot;&gt;$$\begin{bmatrix}&lt;br&gt;\textbf{agents} \\&lt;br&gt;\textbf{plates} \\&lt;br&gt;\textbf{doors} \\&lt;br&gt;\textbf{goals} \\&lt;br&gt;\end{bmatrix}$$&lt;br&gt;&lt;/div&gt;" style="text;html=1;align=left;verticalAlign=middle;whiteSpace=wrap;rounded=0;" vertex="1" parent="1">
          <mxGeometry x="485" y="228.44" width="70" height="83.12" as="geometry" />
        </mxCell>
        <mxCell id="GlhPZns2iECCwf8unu3B-6" value="&lt;font style=&quot;font-size: 12px;&quot;&gt;$$\in \mathbb{R}^{4 \times 25}$$&lt;/font&gt;" style="text;html=1;align=center;verticalAlign=middle;whiteSpace=wrap;rounded=0;" vertex="1" parent="1">
          <mxGeometry x="490" y="310" width="60" height="30" as="geometry" />
        </mxCell>
        <mxCell id="GlhPZns2iECCwf8unu3B-14" value="" style="group" vertex="1" connectable="0" parent="1">
          <mxGeometry x="656" y="220" width="90" height="130" as="geometry" />
        </mxCell>
        <mxCell id="GlhPZns2iECCwf8unu3B-10" value="Entity&lt;div&gt;Encoder&lt;/div&gt;" style="verticalLabelPosition=middle;verticalAlign=middle;html=1;shape=trapezoid;perimeter=trapezoidPerimeter;whiteSpace=wrap;size=0.23;arcSize=10;flipV=1;labelPosition=center;align=center;direction=north;" vertex="1" parent="GlhPZns2iECCwf8unu3B-14">
          <mxGeometry width="60" height="100" as="geometry" />
        </mxCell>
        <mxCell id="GlhPZns2iECCwf8unu3B-11" value="Entity&lt;div&gt;Encoder&lt;/div&gt;" style="verticalLabelPosition=middle;verticalAlign=middle;html=1;shape=trapezoid;perimeter=trapezoidPerimeter;whiteSpace=wrap;size=0.23;arcSize=10;flipV=1;labelPosition=center;align=center;direction=north;" vertex="1" parent="GlhPZns2iECCwf8unu3B-14">
          <mxGeometry x="10" y="10" width="60" height="100" as="geometry" />
        </mxCell>
        <mxCell id="GlhPZns2iECCwf8unu3B-12" value="Entity&lt;div&gt;Encoder&lt;/div&gt;" style="verticalLabelPosition=middle;verticalAlign=middle;html=1;shape=trapezoid;perimeter=trapezoidPerimeter;whiteSpace=wrap;size=0.23;arcSize=10;flipV=1;labelPosition=center;align=center;direction=north;" vertex="1" parent="GlhPZns2iECCwf8unu3B-14">
          <mxGeometry x="20" y="20" width="60" height="100" as="geometry" />
        </mxCell>
        <mxCell id="GlhPZns2iECCwf8unu3B-13" value="&lt;div&gt;Entity&lt;div&gt;Encoder&lt;/div&gt;&lt;/div&gt;" style="verticalLabelPosition=middle;verticalAlign=middle;html=1;shape=trapezoid;perimeter=trapezoidPerimeter;whiteSpace=wrap;size=0.23;arcSize=10;flipV=1;labelPosition=center;align=center;direction=north;" vertex="1" parent="GlhPZns2iECCwf8unu3B-14">
          <mxGeometry x="30" y="30" width="60" height="100" as="geometry" />
        </mxCell>
        <mxCell id="GlhPZns2iECCwf8unu3B-15" value="$$g: \mathbb{R}^{25} \rightarrow \mathbb{R}^{512}$$" style="text;html=1;align=center;verticalAlign=middle;whiteSpace=wrap;rounded=0;" vertex="1" parent="1">
          <mxGeometry x="686" y="350" width="60" height="30" as="geometry" />
        </mxCell>
        <mxCell id="GlhPZns2iECCwf8unu3B-16" value="&lt;div style=&quot;&quot;&gt;$$\begin{bmatrix}&lt;br&gt;g(\textbf{agents}) \\&lt;br&gt;g(\textbf{plates} )\\&lt;br&gt;g(\textbf{doors} )\\&lt;br&gt;g(\textbf{goals} )\\&lt;br&gt;\end{bmatrix}$$&lt;br&gt;&lt;/div&gt;" style="text;html=1;align=left;verticalAlign=middle;whiteSpace=wrap;rounded=0;" vertex="1" parent="1">
          <mxGeometry x="832" y="225" width="70" height="83.12" as="geometry" />
        </mxCell>
        <mxCell id="GlhPZns2iECCwf8unu3B-17" value="&lt;font style=&quot;font-size: 12px;&quot;&gt;$$\in \mathbb{R}^{4 \times 512}$$&lt;/font&gt;" style="text;html=1;align=center;verticalAlign=middle;whiteSpace=wrap;rounded=0;" vertex="1" parent="1">
          <mxGeometry x="842" y="308.12" width="60" height="30" as="geometry" />
        </mxCell>
        <mxCell id="GlhPZns2iECCwf8unu3B-19" style="edgeStyle=orthogonalEdgeStyle;rounded=0;orthogonalLoop=1;jettySize=auto;html=1;exitX=0.17;exitY=1.001;exitDx=0;exitDy=0;exitPerimeter=0;" edge="1" parent="1" source="GlhPZns2iECCwf8unu3B-13" target="GlhPZns2iECCwf8unu3B-16">
          <mxGeometry relative="1" as="geometry">
            <mxPoint x="820" y="275.05555555555554" as="targetPoint" />
          </mxGeometry>
        </mxCell>
        <mxCell id="GlhPZns2iECCwf8unu3B-72" value="" style="group" vertex="1" connectable="0" parent="1">
          <mxGeometry x="129" y="190" width="130" height="130" as="geometry" />
        </mxCell>
        <mxCell id="GlhPZns2iECCwf8unu3B-20" value="" style="shape=table;startSize=0;container=1;collapsible=0;childLayout=tableLayout;fontSize=16;" vertex="1" parent="GlhPZns2iECCwf8unu3B-72">
          <mxGeometry width="100" height="100" as="geometry" />
        </mxCell>
        <mxCell id="GlhPZns2iECCwf8unu3B-21" value="" style="shape=tableRow;horizontal=0;startSize=0;swimlaneHead=0;swimlaneBody=0;strokeColor=inherit;top=0;left=0;bottom=0;right=0;collapsible=0;dropTarget=0;fillColor=none;points=[[0,0.5],[1,0.5]];portConstraint=eastwest;fontSize=16;" vertex="1" parent="GlhPZns2iECCwf8unu3B-20">
          <mxGeometry width="100" height="33" as="geometry" />
        </mxCell>
        <mxCell id="GlhPZns2iECCwf8unu3B-22" value="" style="shape=partialRectangle;html=1;whiteSpace=wrap;connectable=0;strokeColor=inherit;overflow=hidden;fillColor=none;top=0;left=0;bottom=0;right=0;pointerEvents=1;fontSize=16;" vertex="1" parent="GlhPZns2iECCwf8unu3B-21">
          <mxGeometry width="33" height="33" as="geometry">
            <mxRectangle width="33" height="33" as="alternateBounds" />
          </mxGeometry>
        </mxCell>
        <mxCell id="GlhPZns2iECCwf8unu3B-23" value="" style="shape=partialRectangle;html=1;whiteSpace=wrap;connectable=0;strokeColor=inherit;overflow=hidden;fillColor=none;top=0;left=0;bottom=0;right=0;pointerEvents=1;fontSize=16;" vertex="1" parent="GlhPZns2iECCwf8unu3B-21">
          <mxGeometry x="33" width="34" height="33" as="geometry">
            <mxRectangle width="34" height="33" as="alternateBounds" />
          </mxGeometry>
        </mxCell>
        <mxCell id="GlhPZns2iECCwf8unu3B-24" value="" style="shape=partialRectangle;html=1;whiteSpace=wrap;connectable=0;strokeColor=inherit;overflow=hidden;fillColor=none;top=0;left=0;bottom=0;right=0;pointerEvents=1;fontSize=16;" vertex="1" parent="GlhPZns2iECCwf8unu3B-21">
          <mxGeometry x="67" width="33" height="33" as="geometry">
            <mxRectangle width="33" height="33" as="alternateBounds" />
          </mxGeometry>
        </mxCell>
        <mxCell id="GlhPZns2iECCwf8unu3B-25" value="" style="shape=tableRow;horizontal=0;startSize=0;swimlaneHead=0;swimlaneBody=0;strokeColor=inherit;top=0;left=0;bottom=0;right=0;collapsible=0;dropTarget=0;fillColor=none;points=[[0,0.5],[1,0.5]];portConstraint=eastwest;fontSize=16;" vertex="1" parent="GlhPZns2iECCwf8unu3B-20">
          <mxGeometry y="33" width="100" height="34" as="geometry" />
        </mxCell>
        <mxCell id="GlhPZns2iECCwf8unu3B-26" value="" style="shape=partialRectangle;html=1;whiteSpace=wrap;connectable=0;strokeColor=inherit;overflow=hidden;fillColor=none;top=0;left=0;bottom=0;right=0;pointerEvents=1;fontSize=16;" vertex="1" parent="GlhPZns2iECCwf8unu3B-25">
          <mxGeometry width="33" height="34" as="geometry">
            <mxRectangle width="33" height="34" as="alternateBounds" />
          </mxGeometry>
        </mxCell>
        <mxCell id="GlhPZns2iECCwf8unu3B-27" value="" style="shape=partialRectangle;html=1;whiteSpace=wrap;connectable=0;strokeColor=inherit;overflow=hidden;fillColor=none;top=0;left=0;bottom=0;right=0;pointerEvents=1;fontSize=16;" vertex="1" parent="GlhPZns2iECCwf8unu3B-25">
          <mxGeometry x="33" width="34" height="34" as="geometry">
            <mxRectangle width="34" height="34" as="alternateBounds" />
          </mxGeometry>
        </mxCell>
        <mxCell id="GlhPZns2iECCwf8unu3B-28" value="" style="shape=partialRectangle;html=1;whiteSpace=wrap;connectable=0;strokeColor=inherit;overflow=hidden;fillColor=none;top=0;left=0;bottom=0;right=0;pointerEvents=1;fontSize=16;" vertex="1" parent="GlhPZns2iECCwf8unu3B-25">
          <mxGeometry x="67" width="33" height="34" as="geometry">
            <mxRectangle width="33" height="34" as="alternateBounds" />
          </mxGeometry>
        </mxCell>
        <mxCell id="GlhPZns2iECCwf8unu3B-29" value="" style="shape=tableRow;horizontal=0;startSize=0;swimlaneHead=0;swimlaneBody=0;strokeColor=inherit;top=0;left=0;bottom=0;right=0;collapsible=0;dropTarget=0;fillColor=none;points=[[0,0.5],[1,0.5]];portConstraint=eastwest;fontSize=16;" vertex="1" parent="GlhPZns2iECCwf8unu3B-20">
          <mxGeometry y="67" width="100" height="33" as="geometry" />
        </mxCell>
        <mxCell id="GlhPZns2iECCwf8unu3B-30" value="" style="shape=partialRectangle;html=1;whiteSpace=wrap;connectable=0;strokeColor=inherit;overflow=hidden;fillColor=none;top=0;left=0;bottom=0;right=0;pointerEvents=1;fontSize=16;" vertex="1" parent="GlhPZns2iECCwf8unu3B-29">
          <mxGeometry width="33" height="33" as="geometry">
            <mxRectangle width="33" height="33" as="alternateBounds" />
          </mxGeometry>
        </mxCell>
        <mxCell id="GlhPZns2iECCwf8unu3B-31" value="" style="shape=partialRectangle;html=1;whiteSpace=wrap;connectable=0;strokeColor=inherit;overflow=hidden;fillColor=none;top=0;left=0;bottom=0;right=0;pointerEvents=1;fontSize=16;" vertex="1" parent="GlhPZns2iECCwf8unu3B-29">
          <mxGeometry x="33" width="34" height="33" as="geometry">
            <mxRectangle width="34" height="33" as="alternateBounds" />
          </mxGeometry>
        </mxCell>
        <mxCell id="GlhPZns2iECCwf8unu3B-32" value="" style="shape=partialRectangle;html=1;whiteSpace=wrap;connectable=0;strokeColor=inherit;overflow=hidden;fillColor=none;top=0;left=0;bottom=0;right=0;pointerEvents=1;fontSize=16;" vertex="1" parent="GlhPZns2iECCwf8unu3B-29">
          <mxGeometry x="67" width="33" height="33" as="geometry">
            <mxRectangle width="33" height="33" as="alternateBounds" />
          </mxGeometry>
        </mxCell>
        <mxCell id="GlhPZns2iECCwf8unu3B-33" value="" style="shape=table;startSize=0;container=1;collapsible=0;childLayout=tableLayout;fontSize=16;" vertex="1" parent="GlhPZns2iECCwf8unu3B-72">
          <mxGeometry x="10" y="10" width="100" height="100" as="geometry" />
        </mxCell>
        <mxCell id="GlhPZns2iECCwf8unu3B-34" value="" style="shape=tableRow;horizontal=0;startSize=0;swimlaneHead=0;swimlaneBody=0;strokeColor=inherit;top=0;left=0;bottom=0;right=0;collapsible=0;dropTarget=0;fillColor=none;points=[[0,0.5],[1,0.5]];portConstraint=eastwest;fontSize=16;" vertex="1" parent="GlhPZns2iECCwf8unu3B-33">
          <mxGeometry width="100" height="33" as="geometry" />
        </mxCell>
        <mxCell id="GlhPZns2iECCwf8unu3B-35" value="" style="shape=partialRectangle;html=1;whiteSpace=wrap;connectable=0;strokeColor=inherit;overflow=hidden;fillColor=none;top=0;left=0;bottom=0;right=0;pointerEvents=1;fontSize=16;" vertex="1" parent="GlhPZns2iECCwf8unu3B-34">
          <mxGeometry width="33" height="33" as="geometry">
            <mxRectangle width="33" height="33" as="alternateBounds" />
          </mxGeometry>
        </mxCell>
        <mxCell id="GlhPZns2iECCwf8unu3B-36" value="" style="shape=partialRectangle;html=1;whiteSpace=wrap;connectable=0;strokeColor=inherit;overflow=hidden;fillColor=none;top=0;left=0;bottom=0;right=0;pointerEvents=1;fontSize=16;" vertex="1" parent="GlhPZns2iECCwf8unu3B-34">
          <mxGeometry x="33" width="34" height="33" as="geometry">
            <mxRectangle width="34" height="33" as="alternateBounds" />
          </mxGeometry>
        </mxCell>
        <mxCell id="GlhPZns2iECCwf8unu3B-37" value="" style="shape=partialRectangle;html=1;whiteSpace=wrap;connectable=0;strokeColor=inherit;overflow=hidden;fillColor=none;top=0;left=0;bottom=0;right=0;pointerEvents=1;fontSize=16;" vertex="1" parent="GlhPZns2iECCwf8unu3B-34">
          <mxGeometry x="67" width="33" height="33" as="geometry">
            <mxRectangle width="33" height="33" as="alternateBounds" />
          </mxGeometry>
        </mxCell>
        <mxCell id="GlhPZns2iECCwf8unu3B-38" value="" style="shape=tableRow;horizontal=0;startSize=0;swimlaneHead=0;swimlaneBody=0;strokeColor=inherit;top=0;left=0;bottom=0;right=0;collapsible=0;dropTarget=0;fillColor=none;points=[[0,0.5],[1,0.5]];portConstraint=eastwest;fontSize=16;" vertex="1" parent="GlhPZns2iECCwf8unu3B-33">
          <mxGeometry y="33" width="100" height="34" as="geometry" />
        </mxCell>
        <mxCell id="GlhPZns2iECCwf8unu3B-39" value="" style="shape=partialRectangle;html=1;whiteSpace=wrap;connectable=0;strokeColor=inherit;overflow=hidden;fillColor=none;top=0;left=0;bottom=0;right=0;pointerEvents=1;fontSize=16;" vertex="1" parent="GlhPZns2iECCwf8unu3B-38">
          <mxGeometry width="33" height="34" as="geometry">
            <mxRectangle width="33" height="34" as="alternateBounds" />
          </mxGeometry>
        </mxCell>
        <mxCell id="GlhPZns2iECCwf8unu3B-40" value="" style="shape=partialRectangle;html=1;whiteSpace=wrap;connectable=0;strokeColor=inherit;overflow=hidden;fillColor=none;top=0;left=0;bottom=0;right=0;pointerEvents=1;fontSize=16;" vertex="1" parent="GlhPZns2iECCwf8unu3B-38">
          <mxGeometry x="33" width="34" height="34" as="geometry">
            <mxRectangle width="34" height="34" as="alternateBounds" />
          </mxGeometry>
        </mxCell>
        <mxCell id="GlhPZns2iECCwf8unu3B-41" value="" style="shape=partialRectangle;html=1;whiteSpace=wrap;connectable=0;strokeColor=inherit;overflow=hidden;fillColor=none;top=0;left=0;bottom=0;right=0;pointerEvents=1;fontSize=16;" vertex="1" parent="GlhPZns2iECCwf8unu3B-38">
          <mxGeometry x="67" width="33" height="34" as="geometry">
            <mxRectangle width="33" height="34" as="alternateBounds" />
          </mxGeometry>
        </mxCell>
        <mxCell id="GlhPZns2iECCwf8unu3B-42" value="" style="shape=tableRow;horizontal=0;startSize=0;swimlaneHead=0;swimlaneBody=0;strokeColor=inherit;top=0;left=0;bottom=0;right=0;collapsible=0;dropTarget=0;fillColor=none;points=[[0,0.5],[1,0.5]];portConstraint=eastwest;fontSize=16;" vertex="1" parent="GlhPZns2iECCwf8unu3B-33">
          <mxGeometry y="67" width="100" height="33" as="geometry" />
        </mxCell>
        <mxCell id="GlhPZns2iECCwf8unu3B-43" value="" style="shape=partialRectangle;html=1;whiteSpace=wrap;connectable=0;strokeColor=inherit;overflow=hidden;fillColor=none;top=0;left=0;bottom=0;right=0;pointerEvents=1;fontSize=16;" vertex="1" parent="GlhPZns2iECCwf8unu3B-42">
          <mxGeometry width="33" height="33" as="geometry">
            <mxRectangle width="33" height="33" as="alternateBounds" />
          </mxGeometry>
        </mxCell>
        <mxCell id="GlhPZns2iECCwf8unu3B-44" value="" style="shape=partialRectangle;html=1;whiteSpace=wrap;connectable=0;strokeColor=inherit;overflow=hidden;fillColor=none;top=0;left=0;bottom=0;right=0;pointerEvents=1;fontSize=16;" vertex="1" parent="GlhPZns2iECCwf8unu3B-42">
          <mxGeometry x="33" width="34" height="33" as="geometry">
            <mxRectangle width="34" height="33" as="alternateBounds" />
          </mxGeometry>
        </mxCell>
        <mxCell id="GlhPZns2iECCwf8unu3B-45" value="" style="shape=partialRectangle;html=1;whiteSpace=wrap;connectable=0;strokeColor=inherit;overflow=hidden;fillColor=none;top=0;left=0;bottom=0;right=0;pointerEvents=1;fontSize=16;" vertex="1" parent="GlhPZns2iECCwf8unu3B-42">
          <mxGeometry x="67" width="33" height="33" as="geometry">
            <mxRectangle width="33" height="33" as="alternateBounds" />
          </mxGeometry>
        </mxCell>
        <mxCell id="GlhPZns2iECCwf8unu3B-46" value="" style="shape=table;startSize=0;container=1;collapsible=0;childLayout=tableLayout;fontSize=16;" vertex="1" parent="GlhPZns2iECCwf8unu3B-72">
          <mxGeometry x="20" y="20" width="100" height="100" as="geometry" />
        </mxCell>
        <mxCell id="GlhPZns2iECCwf8unu3B-47" value="" style="shape=tableRow;horizontal=0;startSize=0;swimlaneHead=0;swimlaneBody=0;strokeColor=inherit;top=0;left=0;bottom=0;right=0;collapsible=0;dropTarget=0;fillColor=none;points=[[0,0.5],[1,0.5]];portConstraint=eastwest;fontSize=16;" vertex="1" parent="GlhPZns2iECCwf8unu3B-46">
          <mxGeometry width="100" height="33" as="geometry" />
        </mxCell>
        <mxCell id="GlhPZns2iECCwf8unu3B-48" value="" style="shape=partialRectangle;html=1;whiteSpace=wrap;connectable=0;strokeColor=inherit;overflow=hidden;fillColor=none;top=0;left=0;bottom=0;right=0;pointerEvents=1;fontSize=16;" vertex="1" parent="GlhPZns2iECCwf8unu3B-47">
          <mxGeometry width="33" height="33" as="geometry">
            <mxRectangle width="33" height="33" as="alternateBounds" />
          </mxGeometry>
        </mxCell>
        <mxCell id="GlhPZns2iECCwf8unu3B-49" value="" style="shape=partialRectangle;html=1;whiteSpace=wrap;connectable=0;strokeColor=inherit;overflow=hidden;fillColor=none;top=0;left=0;bottom=0;right=0;pointerEvents=1;fontSize=16;" vertex="1" parent="GlhPZns2iECCwf8unu3B-47">
          <mxGeometry x="33" width="34" height="33" as="geometry">
            <mxRectangle width="34" height="33" as="alternateBounds" />
          </mxGeometry>
        </mxCell>
        <mxCell id="GlhPZns2iECCwf8unu3B-50" value="" style="shape=partialRectangle;html=1;whiteSpace=wrap;connectable=0;strokeColor=inherit;overflow=hidden;fillColor=none;top=0;left=0;bottom=0;right=0;pointerEvents=1;fontSize=16;" vertex="1" parent="GlhPZns2iECCwf8unu3B-47">
          <mxGeometry x="67" width="33" height="33" as="geometry">
            <mxRectangle width="33" height="33" as="alternateBounds" />
          </mxGeometry>
        </mxCell>
        <mxCell id="GlhPZns2iECCwf8unu3B-51" value="" style="shape=tableRow;horizontal=0;startSize=0;swimlaneHead=0;swimlaneBody=0;strokeColor=inherit;top=0;left=0;bottom=0;right=0;collapsible=0;dropTarget=0;fillColor=none;points=[[0,0.5],[1,0.5]];portConstraint=eastwest;fontSize=16;" vertex="1" parent="GlhPZns2iECCwf8unu3B-46">
          <mxGeometry y="33" width="100" height="34" as="geometry" />
        </mxCell>
        <mxCell id="GlhPZns2iECCwf8unu3B-52" value="" style="shape=partialRectangle;html=1;whiteSpace=wrap;connectable=0;strokeColor=inherit;overflow=hidden;fillColor=none;top=0;left=0;bottom=0;right=0;pointerEvents=1;fontSize=16;" vertex="1" parent="GlhPZns2iECCwf8unu3B-51">
          <mxGeometry width="33" height="34" as="geometry">
            <mxRectangle width="33" height="34" as="alternateBounds" />
          </mxGeometry>
        </mxCell>
        <mxCell id="GlhPZns2iECCwf8unu3B-53" value="" style="shape=partialRectangle;html=1;whiteSpace=wrap;connectable=0;strokeColor=inherit;overflow=hidden;fillColor=none;top=0;left=0;bottom=0;right=0;pointerEvents=1;fontSize=16;" vertex="1" parent="GlhPZns2iECCwf8unu3B-51">
          <mxGeometry x="33" width="34" height="34" as="geometry">
            <mxRectangle width="34" height="34" as="alternateBounds" />
          </mxGeometry>
        </mxCell>
        <mxCell id="GlhPZns2iECCwf8unu3B-54" value="" style="shape=partialRectangle;html=1;whiteSpace=wrap;connectable=0;strokeColor=inherit;overflow=hidden;fillColor=none;top=0;left=0;bottom=0;right=0;pointerEvents=1;fontSize=16;" vertex="1" parent="GlhPZns2iECCwf8unu3B-51">
          <mxGeometry x="67" width="33" height="34" as="geometry">
            <mxRectangle width="33" height="34" as="alternateBounds" />
          </mxGeometry>
        </mxCell>
        <mxCell id="GlhPZns2iECCwf8unu3B-55" value="" style="shape=tableRow;horizontal=0;startSize=0;swimlaneHead=0;swimlaneBody=0;strokeColor=inherit;top=0;left=0;bottom=0;right=0;collapsible=0;dropTarget=0;fillColor=none;points=[[0,0.5],[1,0.5]];portConstraint=eastwest;fontSize=16;" vertex="1" parent="GlhPZns2iECCwf8unu3B-46">
          <mxGeometry y="67" width="100" height="33" as="geometry" />
        </mxCell>
        <mxCell id="GlhPZns2iECCwf8unu3B-56" value="" style="shape=partialRectangle;html=1;whiteSpace=wrap;connectable=0;strokeColor=inherit;overflow=hidden;fillColor=none;top=0;left=0;bottom=0;right=0;pointerEvents=1;fontSize=16;" vertex="1" parent="GlhPZns2iECCwf8unu3B-55">
          <mxGeometry width="33" height="33" as="geometry">
            <mxRectangle width="33" height="33" as="alternateBounds" />
          </mxGeometry>
        </mxCell>
        <mxCell id="GlhPZns2iECCwf8unu3B-57" value="" style="shape=partialRectangle;html=1;whiteSpace=wrap;connectable=0;strokeColor=inherit;overflow=hidden;fillColor=none;top=0;left=0;bottom=0;right=0;pointerEvents=1;fontSize=16;" vertex="1" parent="GlhPZns2iECCwf8unu3B-55">
          <mxGeometry x="33" width="34" height="33" as="geometry">
            <mxRectangle width="34" height="33" as="alternateBounds" />
          </mxGeometry>
        </mxCell>
        <mxCell id="GlhPZns2iECCwf8unu3B-58" value="" style="shape=partialRectangle;html=1;whiteSpace=wrap;connectable=0;strokeColor=inherit;overflow=hidden;fillColor=none;top=0;left=0;bottom=0;right=0;pointerEvents=1;fontSize=16;" vertex="1" parent="GlhPZns2iECCwf8unu3B-55">
          <mxGeometry x="67" width="33" height="33" as="geometry">
            <mxRectangle width="33" height="33" as="alternateBounds" />
          </mxGeometry>
        </mxCell>
        <mxCell id="GlhPZns2iECCwf8unu3B-59" value="" style="shape=table;startSize=0;container=1;collapsible=0;childLayout=tableLayout;fontSize=16;" vertex="1" parent="GlhPZns2iECCwf8unu3B-72">
          <mxGeometry x="30" y="30" width="100" height="100" as="geometry" />
        </mxCell>
        <mxCell id="GlhPZns2iECCwf8unu3B-60" value="" style="shape=tableRow;horizontal=0;startSize=0;swimlaneHead=0;swimlaneBody=0;strokeColor=inherit;top=0;left=0;bottom=0;right=0;collapsible=0;dropTarget=0;fillColor=none;points=[[0,0.5],[1,0.5]];portConstraint=eastwest;fontSize=16;" vertex="1" parent="GlhPZns2iECCwf8unu3B-59">
          <mxGeometry width="100" height="33" as="geometry" />
        </mxCell>
        <mxCell id="GlhPZns2iECCwf8unu3B-61" value="" style="shape=partialRectangle;html=1;whiteSpace=wrap;connectable=0;strokeColor=inherit;overflow=hidden;fillColor=none;top=0;left=0;bottom=0;right=0;pointerEvents=1;fontSize=16;" vertex="1" parent="GlhPZns2iECCwf8unu3B-60">
          <mxGeometry width="33" height="33" as="geometry">
            <mxRectangle width="33" height="33" as="alternateBounds" />
          </mxGeometry>
        </mxCell>
        <mxCell id="GlhPZns2iECCwf8unu3B-62" value="" style="shape=partialRectangle;html=1;whiteSpace=wrap;connectable=0;strokeColor=inherit;overflow=hidden;fillColor=none;top=0;left=0;bottom=0;right=0;pointerEvents=1;fontSize=16;" vertex="1" parent="GlhPZns2iECCwf8unu3B-60">
          <mxGeometry x="33" width="34" height="33" as="geometry">
            <mxRectangle width="34" height="33" as="alternateBounds" />
          </mxGeometry>
        </mxCell>
        <mxCell id="GlhPZns2iECCwf8unu3B-63" value="" style="shape=partialRectangle;html=1;whiteSpace=wrap;connectable=0;strokeColor=inherit;overflow=hidden;fillColor=none;top=0;left=0;bottom=0;right=0;pointerEvents=1;fontSize=16;" vertex="1" parent="GlhPZns2iECCwf8unu3B-60">
          <mxGeometry x="67" width="33" height="33" as="geometry">
            <mxRectangle width="33" height="33" as="alternateBounds" />
          </mxGeometry>
        </mxCell>
        <mxCell id="GlhPZns2iECCwf8unu3B-64" value="" style="shape=tableRow;horizontal=0;startSize=0;swimlaneHead=0;swimlaneBody=0;strokeColor=inherit;top=0;left=0;bottom=0;right=0;collapsible=0;dropTarget=0;fillColor=none;points=[[0,0.5],[1,0.5]];portConstraint=eastwest;fontSize=16;" vertex="1" parent="GlhPZns2iECCwf8unu3B-59">
          <mxGeometry y="33" width="100" height="34" as="geometry" />
        </mxCell>
        <mxCell id="GlhPZns2iECCwf8unu3B-65" value="" style="shape=partialRectangle;html=1;whiteSpace=wrap;connectable=0;strokeColor=inherit;overflow=hidden;fillColor=none;top=0;left=0;bottom=0;right=0;pointerEvents=1;fontSize=16;" vertex="1" parent="GlhPZns2iECCwf8unu3B-64">
          <mxGeometry width="33" height="34" as="geometry">
            <mxRectangle width="33" height="34" as="alternateBounds" />
          </mxGeometry>
        </mxCell>
        <mxCell id="GlhPZns2iECCwf8unu3B-66" value="" style="shape=partialRectangle;html=1;whiteSpace=wrap;connectable=0;strokeColor=inherit;overflow=hidden;fillColor=none;top=0;left=0;bottom=0;right=0;pointerEvents=1;fontSize=16;" vertex="1" parent="GlhPZns2iECCwf8unu3B-64">
          <mxGeometry x="33" width="34" height="34" as="geometry">
            <mxRectangle width="34" height="34" as="alternateBounds" />
          </mxGeometry>
        </mxCell>
        <mxCell id="GlhPZns2iECCwf8unu3B-67" value="" style="shape=partialRectangle;html=1;whiteSpace=wrap;connectable=0;strokeColor=inherit;overflow=hidden;fillColor=none;top=0;left=0;bottom=0;right=0;pointerEvents=1;fontSize=16;" vertex="1" parent="GlhPZns2iECCwf8unu3B-64">
          <mxGeometry x="67" width="33" height="34" as="geometry">
            <mxRectangle width="33" height="34" as="alternateBounds" />
          </mxGeometry>
        </mxCell>
        <mxCell id="GlhPZns2iECCwf8unu3B-68" value="" style="shape=tableRow;horizontal=0;startSize=0;swimlaneHead=0;swimlaneBody=0;strokeColor=inherit;top=0;left=0;bottom=0;right=0;collapsible=0;dropTarget=0;fillColor=none;points=[[0,0.5],[1,0.5]];portConstraint=eastwest;fontSize=16;" vertex="1" parent="GlhPZns2iECCwf8unu3B-59">
          <mxGeometry y="67" width="100" height="33" as="geometry" />
        </mxCell>
        <mxCell id="GlhPZns2iECCwf8unu3B-69" value="" style="shape=partialRectangle;html=1;whiteSpace=wrap;connectable=0;strokeColor=inherit;overflow=hidden;fillColor=none;top=0;left=0;bottom=0;right=0;pointerEvents=1;fontSize=16;" vertex="1" parent="GlhPZns2iECCwf8unu3B-68">
          <mxGeometry width="33" height="33" as="geometry">
            <mxRectangle width="33" height="33" as="alternateBounds" />
          </mxGeometry>
        </mxCell>
        <mxCell id="GlhPZns2iECCwf8unu3B-70" value="" style="shape=partialRectangle;html=1;whiteSpace=wrap;connectable=0;strokeColor=inherit;overflow=hidden;fillColor=none;top=0;left=0;bottom=0;right=0;pointerEvents=1;fontSize=16;" vertex="1" parent="GlhPZns2iECCwf8unu3B-68">
          <mxGeometry x="33" width="34" height="33" as="geometry">
            <mxRectangle width="34" height="33" as="alternateBounds" />
          </mxGeometry>
        </mxCell>
        <mxCell id="GlhPZns2iECCwf8unu3B-71" value="" style="shape=partialRectangle;html=1;whiteSpace=wrap;connectable=0;strokeColor=inherit;overflow=hidden;fillColor=none;top=0;left=0;bottom=0;right=0;pointerEvents=1;fontSize=16;" vertex="1" parent="GlhPZns2iECCwf8unu3B-68">
          <mxGeometry x="67" width="33" height="33" as="geometry">
            <mxRectangle width="33" height="33" as="alternateBounds" />
          </mxGeometry>
        </mxCell>
      </root>
    </mxGraphModel>
  </diagram>
</mxfile>
